# xmcd
#
# Track frame offsets: 
#        150
#        13697
#        27990
#        41330
#        55230
#        67975
#        82104
#        95845
#        109755
#        125272
#        139317
#        153115
#        167297
#        181345
#        195255
#        208677
#        222080
#        235897
#        248322
#        261837
#        276480
#        290632
#        304890
#        318137
#        331862
#
# Disc length: 4599 seconds
#
# Revision: 0
# Processed by: cddbd v1.5.2PL0 Copyright (c) Steve Scherf et al.
# Submitted via: ExactAudioCopy v0.99pb5
#
DISCID=5c11f519
DTITLE=Charley Patton - Devil Sent the Rain Blues
DYEAR=1929
DGENRE=
TTITLE0=Pony Blues
TTITLE1=A Spoonful Blues
TTITLE2=Down the Dirt Road Blues
TTITLE3=Prayer of Death - Part 1
TTITLE4=Prayer of Death - Part 2
TTITLE5=Screamin' and Hollerin' the Blues
TTITLE6=Banty Rooster Blues
TTITLE7=Tom Rushen Blues
TTITLE8=It Won't Be Long
TTITLE9=Shake It and Break It (But Don't Let It Fall Mama)
TTITLE10=Pea Vine Blues
TTITLE11=Mississippi Boweavil Blues
TTITLE12=Lord I'm Discouraged
TTITLE13=I'm Goin' Home
TTITLE14=High Water Everywhere - Part 1
TTITLE15=High Water Everywhere - Part 2
TTITLE16=I Shall Not Be Moved
TTITLE17=Rattlesnake Blues
TTITLE18=Going to Move to Alabama
TTITLE19=Hammer Blues
TTITLE20=Joe Kirby
TTITLE21=Frankie and Albert
TTITLE22=Devil Sent the Rain Blues
TTITLE23=Magnolia Blues
TTITLE24=Runnin' Wild Blues
EXTD=
EXTT0=
EXTT1=
EXTT2=
EXTT3=
EXTT4=
EXTT5=
EXTT6=
EXTT7=
EXTT8=
EXTT9=
EXTT10=
EXTT11=
EXTT12=
EXTT13=
EXTT14=
EXTT15=
EXTT16=
EXTT17=
EXTT18=
EXTT19=
EXTT20=
EXTT21=
EXTT22=
EXTT23=
EXTT24=
PLAYORDER=
